{"title":"Chris Brown - Liquor/Zero (Explicit) 2015","uid":12497269,"size":299147774,"categoryP":"video","categoryS":"music_videos","magnet":"?xt=urn:btih:1c3ff62d5d985ff550c43599a9f4f24d3376ff36&amp;dn=Chris+Brown+-+Liquor%2FZero+%28Explicit%29+2015&amp;tr=udp%3A%2F%2Ftracker.leechers-paradise.org%3A6969&amp;tr=udp%3A%2F%2Fzer0day.ch%3A1337&amp;tr=udp%3A%2F%2Fopen.demonii.com%3A1337&amp;tr=udp%3A%2F%2Ftracker.coppersurfer.tk%3A6969&amp;tr=udp%3A%2F%2Fexodus.desync.com%3A6969","seeders":0,"leechers":1,"uploader":"MeRaDil","files":1,"time":1443299803,"description":"CHRIS BROWN - LIQUOR/ZERO\r\n\r\n \nhttp://gifyu.com/images/brown-2.png\r\n \nhttps://thepiratebay.gd/user/MeRaDil\r\n\r\n\r\nMEDIA INFO\r\nGeneral\r\nChris Brown - Liquor/Zero (Explicit)\r\nFormat                                   : MPEG-4\r\nFormat profile                           : Base Media\r\nCodec ID                                 : isom\r\nFile size                                : 285 MiB\r\nDuration                                 : 9mn 28s\r\nOverall bit rate                         : 4 209 Kbps\r\nMusicVid name                            : Liquor/Zero\r\nPerformer                                : Chris Brown\r\nGenre                                    : RnB\r\nContentType                              : Music Video\r\nRecorded date                            : 2015\r\nComment                                  : Explicit\r\nRating                                   : Unrated\r\nMake                                     : MeRaDil\r\nRelease time                             : USA - september 23 - 2015\r\n\r\nVideo\r\nID                                       : 1\r\nFormat                                   : AVC\r\nFormat/Info                              : Advanced Video Codec\r\nFormat profile                           :   \r\nFormat settings, CABAC                   : Yes\r\nFormat settings, ReFrames                : 2 frames\r\nCodec ID                                 : avc1\r\nCodec ID/Info                            : Advanced Video Coding\r\nDuration                                 : 9mn 28s\r\nBit rate                                 : 3 943 Kbps\r\nWidth                                    : 1 920 pixels\r\nHeight                                   : 1 080 pixels\r\nDisplay aspect ratio                     : 16:9\r\nFrame rate mode                          : Variable\r\nFrame rate                               : 23.976 fps\r\nMinimum frame rate                       : 23.974 fps\r\nMaximum frame rate                       : 23.981 fps\r\nColor space                              : YUV\r\nChroma subsampling                       : 4:2:0\r\nBit depth                                : 8 bits\r\nScan type                                : Progressive\r\nBits/(Pixel*Frame)                       : 0.079\r\nStream size                              : 267 MiB (94%)\r\n\r\nAudio\r\nID                                       : 2\r\nFormat                                   : AAC\r\nFormat/Info                              : Advanced Audio Codec\r\nFormat profile                           : LC\r\nCodec ID                                 : 40\r\nDuration                                 : 9mn 28s\r\nBit rate mode                            : Constant\r\nBit rate                                 : 256 Kbps\r\nChannel(s)                               : 2 channels\r\nChannel positions                        : Front: L R\r\nSampling rate                            : 44.1 KHz\r\nCompression mode                         : Lossy\r\nStream size                              : 17.4 MiB (6%)\r\n\r\nChris Brown * RnB/HipHop * Promo","torrent":{"xt":"urn:btih:1c3ff62d5d985ff550c43599a9f4f24d3376ff36","amp;dn":"Chris+Brown+-+Liquor%2FZero+%28Explicit%29+2015","amp;tr":["udp%3A%2F%2Ftracker.leechers-paradise.org%3A6969","udp%3A%2F%2Fzer0day.ch%3A1337","udp%3A%2F%2Fopen.demonii.com%3A1337","udp%3A%2F%2Ftracker.coppersurfer.tk%3A6969","udp%3A%2F%2Fexodus.desync.com%3A6969"],"infoHash":"1c3ff62d5d985ff550c43599a9f4f24d3376ff36","infoHashBuffer":{"type":"Buffer","data":[28,63,246,45,93,152,95,245,80,196,53,153,169,244,242,77,51,118,255,54]},"announce":[],"urlList":[]}}